Brief Interviews With Hideous Men {2009}

After her boyfriend mysteriously leaves her with little explanation, a doctoral candidate in anthropology at a prestigious East Coast university Sara Quinn is left looking for answers as to what went wrong. Directing all her energies into her anthropological dissertation, Sara conducts a series of interviews with men in an effort to uncover the secret thoughts that drive their behavior. She thinks she can remedy both her heartache and her academic challenges with a new research project and begins conducting a series of interviews with men. As she records the astonishing and disquieting experiences of various subjects, Sara discovers much more about men and herself than she bargained for.
 
http://www.imdb.com/title/tt0790627/

General
Complete name                    : Brief Interviews With Hideous Men {2009} DVDRip-XviD~Wolftatt2~.avi
Format                                 : AVI
Format/Info                          : Audio Video Interleave
File size                                : 700 MiB
Duration                               : 1h 20mn
Overall bit rate mode            : Variable
Overall bit rate                      : 1 220 Kbps
Writing application                : Nandub v1.0rc2
Writing library                       : Nandub build 1853/releaseVideo
ID                                        : 0
Format                                 : MPEG-4 Visual
Format profile                       : Advanced Simple@L5
Format settings, BVOP         : 2
Format settings, QPel            : Yes
Format settings, GMC           : No warppoints
Format settings, Matrix          : Default (MPEG)
Codec ID                              : XVID
Codec ID/Hint                       : XviD
Duration                                : 1h 20mn
Bit rate                                  : 1 118 Kbps
Width                                    : 640 pixels
Height                                    : 272 pixels
Display aspect ratio                : 2.35:1
Frame rate                             : 23.976 fps
Color space                           : YUV
Chroma subsampling              : 4:2:0
Bit depth                               : 8 bits
Scan type                              : Progressive
Compression mode                : Lossy
Bits/(Pixel*Frame)                  : 0.268
Stream size                             : 641 MiB (92%)
Writing library                        : XviD 1.2.1 (UTC 2008-12-04)

Audio
ID                                          : 1
Format                                   : MPEG Audio
Format version                       : Version 1
Format profile                        : Layer 3
Mode                                    : Joint stereo
Mode extension                     : MS Stereo
Codec ID                              : 55
Codec ID/Hint                       : MP3
Duration                                : 1h 20mn
Bit rate mode                         : Variable
Bit rate                                   : 89.9 Kbps
Minimum bit rate                     : 32.0 Kbps
Channel(s)                              : 2 channels
Sampling rate                          : 48.0 KHz
Compression mode                 : Lossy
Stream size                             : 51.5 MiB (7%)
Alignment                               : Aligned on interleaves
Interleave, duration                 : 24 ms (0.58 video frame)
Interleave, preload duration     : 196 ms
 Encoding settings                    : -m j -V 5 -q 3 -lowpass 16 --vbr-new -b 32

Thanks for downloading. 

Please Seed!

~Wolftatt2~